<?xml version="1.0" standalone="no"?>
<!DOCTYPE svg PUBLIC "-//W3C//DTD SVG 20010904//EN"
 "http://www.w3.org/TR/2001/REC-SVG-20010904/DTD/svg10.dtd">
<svg version="1.0" xmlns="http://www.w3.org/2000/svg"
 width="166.000000pt" height="51.000000pt" viewBox="0 0 166.000000 51.000000"
 preserveAspectRatio="xMidYMid meet">

<g transform="translate(0.000000,51.000000) scale(0.100000,-0.100000)"
fill="#000000" stroke="none">
<path d="M74 496 c-57 -25 -80 -87 -53 -138 6 -11 39 -33 74 -49 67 -30 81
-47 61 -75 -11 -14 -23 -16 -78 -11 -65 6 -66 6 -71 -21 -3 -15 -3 -29 0 -32
2 -3 45 -5 94 -5 83 0 90 2 115 27 20 20 27 36 27 67 0 52 -14 68 -90 103 -47
21 -63 33 -63 48 0 31 42 46 87 32 20 -6 38 -10 39 -9 1 1 4 15 6 31 2 24 -2
31 -22 37 -40 11 -93 9 -126 -5z"/>
<path d="M382 479 c-120 -61 -124 -250 -7 -316 90 -51 191 -15 236 82 69 150
-85 308 -229 234z m127 -75 c29 -21 52 -74 44 -105 -3 -13 -17 -36 -31 -52
-68 -72 -188 7 -157 104 19 60 94 87 144 53z"/>
<path d="M680 330 l0 -170 110 0 110 0 0 30 0 29 -72 3 -73 3 -3 138 -3 137
-34 0 -35 0 0 -170z"/>
<path d="M940 330 l0 -170 40 0 40 0 0 58 c0 52 11 82 31 82 4 0 25 -31 48
-70 l42 -70 45 0 46 0 -23 38 c-12 20 -30 48 -39 62 -9 14 -26 41 -38 61 l-22
37 47 58 c25 33 51 65 56 72 7 9 -2 12 -39 12 l-49 0 -50 -73 -50 -72 -3 73
-3 72 -39 0 -40 0 0 -170z"/>
<path d="M1325 477 c-158 -90 -98 -337 82 -337 l38 0 -30 16 c-45 23 -66 45
-86 89 -22 47 -24 84 -7 120 12 27 54 55 83 55 29 0 71 -28 83 -55 20 -44 15
-84 -16 -115 -25 -25 -27 -29 -11 -33 57 -15 119 38 119 103 0 137 -139 223
-255 157z"/>
<path d="M3 55 c0 -33 2 -45 4 -27 2 18 2 45 0 60 -2 15 -4 0 -4 -33z"/>
<path d="M160 96 c0 -8 -10 -16 -22 -18 -18 -2 -24 -11 -26 -35 -2 -18 0 -34
5 -34 60 -10 63 -8 63 48 0 29 -4 53 -10 53 -5 0 -10 -6 -10 -14z m-2 -54 c2
-14 -2 -22 -12 -22 -19 0 -28 14 -20 35 9 21 28 14 32 -13z"/>
<path d="M674 95 c-9 -23 3 -45 26 -45 11 0 20 -6 20 -14 0 -23 -17 -28 -33
-11 -22 21 -30 19 -17 -5 13 -24 42 -26 60 -5 11 13 14 13 27 0 31 -31 70 -4
59 40 -8 31 -55 36 -63 7 -4 -18 -7 -18 -39 -3 -19 8 -34 18 -34 22 0 15 22
21 33 10 17 -17 31 -13 17 4 -7 8 -21 15 -32 15 -10 0 -21 -7 -24 -15z m124
-53 c2 -14 -2 -22 -12 -22 -19 0 -28 14 -20 35 9 21 28 14 32 -13z"/>
<path d="M830 54 c0 -34 4 -53 10 -49 6 3 10 28 10 56 0 27 -4 49 -10 49 -5 0
-10 -25 -10 -56z"/>
<path d="M980 100 c0 -5 5 -10 10 -10 6 0 10 5 10 10 0 6 -4 10 -10 10 -5 0
-10 -4 -10 -10z"/>
<path d="M1232 58 l-2 -58 30 0 c17 0 30 5 30 10 0 6 -11 10 -24 10 -22 0 -25
5 -29 48 -3 46 -3 46 -5 -10z"/>
<path d="M1510 96 c0 -8 -10 -16 -21 -18 -53 -8 -48 -72 5 -74 25 -1 26 1 26
52 0 30 -2 54 -5 54 -3 0 -5 -6 -5 -14z m-5 -52 c0 -10 -8 -20 -17 -22 -18 -3
-26 27 -11 42 12 11 28 0 28 -20z"/>
<path d="M348 88 c-7 -16 2 -77 11 -83 8 -5 7 83 -1 91 -3 3 -8 -1 -10 -8z"/>
<path d="M948 88 c-7 -16 2 -77 11 -83 8 -4 5 84 -2 91 -3 3 -7 -1 -9 -8z"/>
<path d="M30 38 c0 -44 16 -43 22 2 4 35 22 27 29 -12 4 -26 7 -29 13 -15 5 9
5 28 2 42 -5 20 -13 25 -36 25 -29 0 -30 -2 -30 -42z"/>
<path d="M190 51 c0 -33 13 -46 48 -46 19 -1 22 4 22 37 0 21 -4 38 -10 38 -5
0 -10 -13 -10 -30 0 -20 -5 -30 -15 -30 -10 0 -15 10 -15 30 0 17 -4 30 -10
30 -5 0 -10 -13 -10 -29z"/>
<path d="M275 70 c-8 -13 3 -30 20 -30 8 0 17 -5 21 -11 5 -8 -1 -10 -20 -7
-14 3 -26 2 -26 -3 0 -11 38 -22 50 -14 17 11 11 37 -10 42 -11 3 -20 10 -20
15 0 5 10 6 21 3 15 -5 19 -4 15 4 -9 14 -43 14 -51 1z"/>
<path d="M392 38 c1 -37 2 -39 5 -10 2 17 8 32 14 32 5 0 9 5 9 10 0 6 -7 10
-15 10 -11 0 -15 -11 -13 -42z"/>
<path d="M443 40 c0 -25 2 -35 4 -22 2 12 2 32 0 45 -2 12 -4 2 -4 -23z"/>
<path d="M470 61 c-5 -11 -7 -26 -4 -35 7 -18 39 -30 54 -21 19 12 10 22 -15
17 -15 -2 -25 0 -25 7 0 6 14 11 30 11 28 0 30 2 20 20 -14 25 -46 26 -60 1z
m45 -1 c3 -5 -3 -10 -15 -10 -12 0 -18 5 -15 10 3 6 10 10 15 10 5 0 12 -4 15
-10z"/>
<path d="M550 60 c0 -11 6 -20 14 -20 8 0 18 -5 22 -11 5 -9 -1 -10 -22 -5
-28 7 -28 7 -11 -11 13 -13 22 -15 33 -8 22 14 20 28 -5 40 -27 12 -28 29 -1
22 11 -3 20 -1 20 4 0 5 -11 9 -25 9 -18 0 -25 -5 -25 -20z"/>
<path d="M860 51 c0 -33 17 -51 45 -47 15 2 21 12 23 39 2 21 -1 37 -7 37 -6
0 -11 -13 -11 -30 0 -20 -5 -30 -15 -30 -10 0 -15 10 -15 30 0 17 -4 30 -10
30 -5 0 -10 -13 -10 -29z"/>
<path d="M980 46 c0 -19 5 -38 10 -41 6 -4 10 10 10 34 0 23 -4 41 -10 41 -5
0 -10 -15 -10 -34z"/>
<path d="M1022 68 c-29 -29 -1 -75 38 -63 17 5 20 13 18 38 -3 35 -33 48 -56
25z m43 -24 c0 -10 -8 -20 -17 -22 -18 -3 -26 27 -11 42 12 11 28 0 28 -20z"/>
<path d="M1101 38 c2 -42 2 -42 8 -9 8 43 28 51 37 14 10 -47 13 -50 11 -8 -2
36 -5 40 -29 43 -27 3 -28 2 -27 -40z"/>
<path d="M1300 65 c-10 -12 -10 -21 -2 -40 12 -26 20 -29 46 -19 25 10 19 22
-9 16 -15 -2 -25 0 -25 7 0 6 12 11 26 11 19 0 25 5 22 18 -4 22 -41 27 -58 7z
m45 -5 c3 -5 -3 -10 -15 -10 -12 0 -18 5 -15 10 3 6 10 10 15 10 5 0 12 -4 15
-10z"/>
<path d="M1385 70 c-5 -9 -1 -10 14 -5 11 3 21 2 21 -3 0 -6 -12 -13 -26 -16
-38 -10 -28 -41 14 -41 32 -1 33 1 30 35 -2 27 -8 36 -25 38 -11 2 -24 -2 -28
-8z m40 -40 c-3 -5 -13 -10 -21 -10 -8 0 -12 5 -9 10 3 6 13 10 21 10 8 0 12
-4 9 -10z"/>
<path d="M1547 73 c-4 -3 -7 -19 -7 -34 0 -28 28 -47 50 -34 17 11 11 23 -9
18 -10 -3 -22 0 -25 6 -5 7 4 11 23 11 33 0 39 8 19 28 -13 13 -41 16 -51 5z
m38 -13 c3 -5 -3 -10 -15 -10 -12 0 -18 5 -15 10 3 6 10 10 15 10 5 0 12 -4
15 -10z"/>
<path d="M1620 39 c0 -24 4 -38 10 -34 6 3 10 16 10 29 0 12 5 27 12 34 9 9 7
12 -10 12 -19 0 -22 -5 -22 -41z"/>
</g>
</svg>
