<?xml version="1.0" encoding="UTF-8"?><svg id="_레이어_1" xmlns="http://www.w3.org/2000/svg" viewBox="0 0 24 24"><path d="m22.97,12.03c-.12-.16-.24-.32-.36-.49-.2-.26-.39-.52-.59-.78-.22-.29-.44-.59-.66-.88-.14-.19-.28-.38-.42-.57-.03-.04-.05-.09-.05-.14,0-.56,0-1.12,0-1.68,0,0-.01,0-.02,0,0-.12,0-.24,0-.36,0-.44,0-.89-.01-1.33,0-.06-.01-.08-.07-.1-.12-.03-.24-.07-.35-.11-.32-.1-.64-.21-.96-.32-.31-.1-.61-.2-.92-.29-.33-.1-.66-.21-.99-.31-.05-.02-.11-.04-.15-.08-.11-.14-.21-.28-.32-.42-.38-.51-.77-1.03-1.15-1.54-.2-.27-.41-.54-.61-.81-.01-.02-.05-.03-.07-.02-.25.07-.5.15-.75.23-.35.11-.71.22-1.06.33-.49.15-.97.31-1.46.46-.04.01-.1.02-.14,0-.21-.06-.41-.14-.62-.21-.55-.18-1.1-.36-1.65-.54-.34-.11-.68-.21-1.01-.32-.05-.02-.08,0-.11.04-.15.22-.31.43-.46.64-.28.38-.56.76-.84,1.14-.22.3-.44.6-.67.9-.04.05-.1.09-.16.1-.19.07-.39.12-.59.18-.35.11-.69.22-1.04.33-.3.09-.59.18-.89.28-.24.07-.47.15-.71.22-.05.02-.07.03-.07.09,0,.43.01.87.02,1.3,0,.69.01,1.39.02,2.08,0,.04-.01.08-.04.11-.22.3-.44.6-.66.9-.17.23-.34.47-.52.7-.27.37-.55.74-.83,1.11-.03.05-.03.08,0,.13.3.39.59.78.88,1.18.39.52.77,1.03,1.15,1.55.02.03.04.08.04.12,0,.55,0,1.1.01,1.65,0,.57,0,1.14.01,1.71,0,.05,0,.09.06.11.3.09.6.19.89.29.54.18,1.09.35,1.63.53.23.08.47.15.7.22.06.02.13.04.16.08.48.63.95,1.27,1.42,1.9.21.28.42.57.63.85.03.04.05.05.1.04.16-.05.33-.1.5-.15.31-.1.61-.19.92-.29.6-.19,1.19-.37,1.79-.56.08-.02.15-.03.23,0,.57.19,1.14.37,1.71.55.31.1.63.21.94.31.18.06.37.11.55.18.08.03.12.02.17-.05.65-.89,1.3-1.77,1.96-2.66.03-.04.08-.08.13-.1.45-.14.9-.28,1.35-.42.64-.2,1.27-.39,1.91-.59.06-.02.08-.05.08-.11,0-.43,0-.86-.01-1.29,0-.38,0-.77,0-1.15,0-.29,0-.58-.02-.87,0-.08,0-.13.05-.19.35-.47.7-.95,1.05-1.42.31-.42.63-.85.95-1.27.03-.04.02-.07,0-.11Zm-12.98,5.28c-1.5-1.51-3.01-3.02-4.51-4.53.43-.43.87-.86,1.31-1.3,0,0,.02.01.03.03.98.98,1.96,1.96,2.94,2.94.07.07.13.14.2.21.03.04.05.03.08,0,1.72-1.72,3.44-3.44,5.16-5.16.47-.47.94-.95,1.42-1.42.02-.02.03-.03.04-.04.44.44.87.87,1.31,1.31-2.65,2.65-5.31,5.31-7.98,7.98Z" fill="#637381"/></svg>