<?xml version="1.0" encoding="UTF-8"?><svg id="_레이어_1" xmlns="http://www.w3.org/2000/svg" viewBox="0 0 24 24"><path d="m22.97,12c-.08-.11-.16-.22-.24-.32-.59-.8-1.19-1.59-1.78-2.39-.02-.03-.03-.06-.03-.09,0-.41-.01-.82-.02-1.22,0-.72,0-1.44-.01-2.16,0-.07-.02-.1-.08-.12-.39-.12-.77-.25-1.16-.37-.35-.11-.7-.22-1.05-.33-.34-.11-.68-.22-1.02-.33-.05-.02-.1-.04-.13-.08-.41-.54-.81-1.08-1.22-1.62-.28-.38-.56-.76-.85-1.14-.01-.02-.06-.04-.08-.03-.2.06-.4.12-.61.18-.46.14-.91.29-1.36.43-.41.13-.81.25-1.22.38-.11.04-.21.04-.33,0-.32-.11-.65-.22-.97-.32-.27-.09-.55-.18-.82-.27-.15-.05-.31-.1-.46-.15-.31-.1-.62-.2-.93-.29-.03,0-.08,0-.1.02-.18.24-.36.48-.54.72-.12.17-.23.34-.36.5-.18.24-.36.47-.54.71-.18.24-.35.48-.52.73-.06.09-.14.13-.24.16-.33.1-.67.2-1,.3-.38.12-.76.24-1.14.36-.34.11-.68.21-1.02.32-.07.02-.09.06-.09.13,0,.59.01,1.18.02,1.77,0,.38,0,.76,0,1.14,0,.12.01.24.01.35,0,.06,0,.13-.03.17-.14.21-.29.41-.44.61-.19.26-.38.51-.57.76-.25.34-.5.68-.76,1.02-.09.13-.19.25-.28.38.28.38.56.75.84,1.12.41.54.81,1.09,1.22,1.63.03.05.06.11.06.17,0,.28,0,.56,0,.85,0,.55,0,1.09,0,1.64,0,.12.01.25.01.37,0,.18,0,.35,0,.53,0,.05.01.06.06.08.45.14.89.28,1.34.43.63.2,1.26.41,1.89.61.09.03.16.07.22.15.45.61.91,1.22,1.37,1.83.21.28.42.57.63.85.03.04.05.07.11.05.18-.06.37-.11.56-.17.9-.28,1.81-.57,2.71-.85.04-.01.09-.01.13,0,.57.18,1.14.37,1.7.55.52.17,1.03.34,1.54.51.07.02.11.01.15-.05.63-.86,1.27-1.71,1.9-2.57.09-.13.2-.2.35-.24.8-.24,1.59-.49,2.38-.73.26-.08.52-.17.79-.25,0,0,0-.03,0-.05,0-.71-.01-1.42-.02-2.12,0-.34,0-.67,0-1.01,0-.05-.01-.1-.01-.14,0-.07-.01-.15.02-.2.09-.15.21-.28.31-.42.56-.76,1.13-1.52,1.69-2.28.04-.06.05-.11,0-.17Zm-6.14,5.43c-.91.17-2.43.33-4.82.33s-3.91-.17-4.82-.33c-.25-.05-.39-.31-.34-.56.39-1.83,1.67-3.31,3.34-3.95-1.25-.66-2.1-1.96-2.1-3.47,0-2.17,1.76-3.92,3.92-3.92s3.92,1.76,3.92,3.92c0,1.51-.85,2.81-2.1,3.47,1.67.64,2.95,2.12,3.34,3.95.05.25-.08.51-.34.56Z" fill="#637381"/></svg>