<?xml version="1.0" encoding="UTF-8"?><svg id="_레이어_1" xmlns="http://www.w3.org/2000/svg" viewBox="0 0 24 24"><path d="m4.2,6.23c.7-.31,1.39-.72,2.12-.89,1.05-.24,2.12-.48,3.24-.41,1.94.13,3.58.88,5.02,2.15.29.25.3.46.03.78-.21.25-.46.46-.68.69-.53.53-1.05,1.07-1.6,1.63.08.02.12.04.16.04.61-.02,1.22-.04,1.84-.05.9,0,1.8,0,2.71,0,1.05-.01,2.11-.04,3.16-.05.17,0,.25-.04.24-.23-.02-.26,0-.51,0-.77-.03-1.18-.07-2.36-.08-3.54-.01-1.03,0-2.05,0-3.14-.11.1-.18.16-.24.23-.46.47-.91.95-1.39,1.39-.12.11-.4.16-.54.09-.43-.21-.82-.49-1.24-.73-.99-.56-2.03-.97-3.15-1.16-.92-.16-1.84-.2-2.76-.05-.72.12-1.47.17-2.15.4-1.3.43-2.5,1.08-3.51,2.02-.59.55-1.11,1.16-1.67,1.75.03.03.05.06.08.09.15-.07.29-.16.44-.22Z" fill="none"/><path d="m9.35,16.11c.18-.17.35-.34.53-.51.55-.52,1.1-1.03,1.7-1.59-2.73-.06-5.39-.13-8.07-.19-.08,2.54-.16,5.05-.24,7.64.54-.52,1.04-.99,1.54-1.47.26-.25.48-.26.78-.07.67.42,1.33.85,2.02,1.23,1.59.88,3.33,1.15,5.11,1.01.19-.02.38-.06.57-.08-.04-.13-.07-.27-.07-.42v-2.37c-1.45-.37-2.72-1.11-3.85-2.1-.45-.4-.46-.64-.02-1.07Z" fill="none"/><path d="m13.29,22.06c-.19.03-.38.07-.57.08-1.79.14-3.52-.13-5.11-1.01-.69-.38-1.35-.81-2.02-1.23-.3-.19-.52-.18-.78.07-.5.48-1,.95-1.54,1.47.08-2.58.16-5.1.24-7.64,2.69.06,5.34.13,8.07.19-.59.56-1.14,1.07-1.7,1.59-.18.17-.36.34-.53.51-.44.43-.44.68.02,1.07,1.14.99,2.4,1.73,3.85,2.1v-.96c-.07-.02-.14-.03-.21-.05-1.03-.31-1.92-.88-2.75-1.56-.02-.02-.03-.06-.04-.1.94-.9,1.87-1.82,2.83-2.7.2-.18.16-.35.11-.53-.04-.18-.16-.25-.38-.26-.94-.01-1.87-.07-2.81-.1-1.31-.04-2.61-.08-3.92-.12-1.01-.03-2.01-.05-3.02-.08-.31,0-.51.28-.5.66.02.61,0,1.22,0,1.92-.09-.16-.15-.23-.17-.3-.64-2.2-.59-4.38.25-6.51.13-.33.51-.62.85-.81.97-.55,1.94-1.13,2.98-1.52.75-.28,1.61-.31,2.43-.39,1.04-.1,2.04.12,2.98.56.61.29,1.19.66,1.8,1.01-.93.95-1.81,1.84-2.68,2.74-.18.19-.37.41-.2.7.14.24.36.28.64.27,1.42-.02,2.83,0,4.25-.02.93-.01,1.85-.06,2.77-.08.74-.01,1.48-.01,2.22,0,.46,0,.67-.15.68-.59,0-.52,0-1.05,0-1.57,0-.05.03-.1.04-.15.03,0,.05-.01.08-.02.1.33.21.65.29.99.22,1.02.37,2.06.29,3.11-.02.21-.04.42-.07.64.37.12.68.38.86.72.17-.93.23-1.89.14-2.86-.15-1.58-.53-3.12-1.35-4.52-.15-.26-.3-.56-.31-.84-.04-1.05-.02-2.1-.03-3.16,0-.5-.08-1-.04-1.49.03-.29-.12-.41-.3-.45-.16-.04-.41.01-.52.12-.71.7-1.4,1.42-2.07,2.12-.63-.34-1.23-.7-1.86-.98-1.31-.58-2.66-1-4.12-.91-.58.04-1.17-.02-1.74.05-1.46.18-2.84.64-4.13,1.38-1.29.74-2.37,1.71-3.27,2.87-.64.83-1.13,1.75-1.49,2.74-.79,2.19-.98,4.39-.36,6.66.21.77.48,1.51.86,2.21.16.29.26.59.18.93-.05.24,0,.49-.01.74-.03,1.18-.07,2.36-.09,3.54,0,.25,0,.52.27.66.27.14.48-.03.66-.2.68-.64,1.35-1.29,2.03-1.95.11.07.22.15.33.22.4.25.79.52,1.19.75.94.53,1.95.9,3.01,1.12,1.13.23,2.27.31,3.42.16.25-.03.51-.08.76-.13-.33-.19-.58-.51-.69-.88ZM5.35,4.61c1.01-.94,2.21-1.59,3.51-2.02.69-.23,1.43-.28,2.15-.4.92-.15,1.84-.11,2.76.05,1.12.19,2.16.6,3.15,1.16.42.24.81.52,1.24.73.14.07.43.01.54-.09.48-.44.93-.93,1.39-1.39.07-.07.14-.13.24-.23,0,1.08,0,2.11,0,3.14.02,1.18.06,2.36.08,3.54,0,.26-.01.52,0,.77.01.19-.07.23-.24.23-1.05.01-2.11.04-3.16.05-.9,0-1.8,0-2.71,0-.61,0-1.22.03-1.84.05-.04,0-.08-.02-.16-.04.55-.56,1.07-1.09,1.6-1.63.23-.23.47-.44.68-.69.27-.31.26-.53-.03-.78-1.44-1.27-3.08-2.02-5.02-2.15-1.12-.07-2.18.16-3.24.41-.74.17-1.42.58-2.12.89-.15.07-.29.15-.44.22-.03-.03-.05-.06-.08-.09.55-.59,1.08-1.2,1.67-1.75Z" fill="#637381"/><path d="m21.74,9.71c-.07-.33-.19-.66-.29-.99-.03,0-.05.01-.08.02-.01.05-.04.1-.04.15,0,.52.01,1.05,0,1.57,0,.44-.22.6-.68.59-.74-.02-1.48-.02-2.22,0-.93.02-1.85.07-2.77.08-1.42.02-2.83,0-4.25.02-.28,0-.5-.03-.64-.27-.16-.29.02-.52.2-.7.87-.9,1.75-1.79,2.68-2.74-.62-.35-1.19-.72-1.8-1.01-.94-.44-1.95-.66-2.98-.56-.82.08-1.68.11-2.43.39-1.04.39-2.01.97-2.98,1.52-.33.19-.72.48-.85.81-.84,2.13-.9,4.31-.25,6.51.02.08.08.15.17.3,0-.7.02-1.31,0-1.92-.01-.38.18-.67.5-.66,1.01.03,2.01.05,3.02.08,1.31.04,2.61.07,3.92.12.94.03,1.87.08,2.81.1.22,0,.34.08.38.26.04.18.08.35-.11.53-.96.88-1.89,1.8-2.83,2.7.02.05.02.09.04.1.83.68,1.72,1.25,2.75,1.56.07.02.14.03.21.05v-3.44c0-.83.68-1.51,1.51-1.51h6.77c.16,0,.32.03.47.08.03-.21.06-.42.07-.64.07-1.05-.07-2.09-.29-3.11Z" fill="#637381" stroke="#637381" stroke-miterlimit="10" stroke-width=".75"/><path d="m22.82,14.18c-.18-.34-.49-.6-.86-.72-.15-.05-.3-.08-.47-.08h-6.77c-.83,0-1.51.68-1.51,1.51v6.77c0,.15.03.28.07.42.11.38.36.69.69.88.22.13.47.21.75.21h6.77c.83,0,1.51-.68,1.51-1.51v-6.77c0-.25-.07-.49-.18-.7Z" fill="none" stroke="#637381" stroke-miterlimit="10" stroke-width=".75"/><path d="m18.91,21.33h-1.62l-2.71-6.12h1.63l1.9,4.38,1.89-4.38h1.63l-2.72,6.12Z" fill="#637381"/></svg>